<svg width="75" height="76" viewBox="0 0 75 76" fill="none" xmlns="http://www.w3.org/2000/svg">
<path d="M58.5938 30.9688L54.8602 38L46.875 38.9703L52.7344 44.2508L51.5625 52.0625L58.5938 47.668L65.625 52.0625L64.4531 44.2508L70.3125 38.9703L62.1094 38L58.5938 30.9688Z" fill="white"/>
<path d="M50.1891 31.9391L58.5938 23.5484L67.0008 31.9438L70.3125 28.625L58.5938 16.9062L46.875 28.625L50.1891 31.9391Z" fill="white"/>
<path d="M50.1891 20.2203L58.5938 11.8297L67.0008 20.225L70.3125 16.9062L58.5938 5.1875L46.875 16.9062L50.1891 20.2203Z" fill="white"/>
<path d="M37.5 70.8125H32.8125V59.0938C32.8105 57.2296 32.069 55.4423 30.7508 54.1242C29.4327 52.806 27.6454 52.0645 25.7812 52.0625H16.4062C14.5421 52.0645 12.7548 52.806 11.4367 54.1242C10.1185 55.4423 9.37705 57.2296 9.375 59.0938V70.8125H4.6875V59.0938C4.69116 55.9869 5.92699 53.0083 8.12388 50.8114C10.3208 48.6145 13.2994 47.3787 16.4062 47.375H25.7812C28.8881 47.3787 31.8667 48.6145 34.0636 50.8114C36.2605 53.0083 37.4963 55.9869 37.5 59.0938V70.8125Z" fill="white"/>
<path d="M21.0938 23.9375C22.4844 23.9375 23.8438 24.3499 25.0001 25.1225C26.1564 25.8951 27.0576 26.9932 27.5898 28.278C28.122 29.5628 28.2612 30.9766 27.9899 32.3405C27.7186 33.7044 27.0489 34.9573 26.0656 35.9406C25.0823 36.9239 23.8294 37.5936 22.4655 37.8649C21.1016 38.1362 19.6878 37.997 18.403 37.4648C17.1182 36.9326 16.0201 36.0314 15.2475 34.8751C14.4749 33.7188 14.0625 32.3594 14.0625 30.9688C14.0625 29.1039 14.8033 27.3155 16.1219 25.9969C17.4405 24.6783 19.229 23.9375 21.0938 23.9375ZM21.0938 19.25C18.776 19.25 16.5103 19.9373 14.5832 21.225C12.656 22.5126 11.154 24.3429 10.267 26.4842C9.38008 28.6255 9.14801 30.9817 9.60018 33.255C10.0523 35.5282 11.1685 37.6163 12.8073 39.2552C14.4462 40.8941 16.5343 42.0102 18.8075 42.4623C21.0808 42.9145 23.437 42.6824 25.5783 41.7955C27.7196 40.9085 29.5499 39.4065 30.8375 37.4793C32.1252 35.5522 32.8125 33.2865 32.8125 30.9688C32.8125 29.4298 32.5094 27.906 31.9205 26.4842C31.3315 25.0624 30.4683 23.7705 29.3802 22.6823C28.292 21.5942 27.0001 20.731 25.5783 20.142C24.1565 19.5531 22.6327 19.25 21.0938 19.25Z" fill="white"/>
</svg>
