<svg width="76" height="76" viewBox="0 0 76 76" fill="none" xmlns="http://www.w3.org/2000/svg">
<path d="M51.0566 65.5379C46.9625 67.4823 42.5696 68.4688 38 68.4688C21.1995 68.4688 7.53125 54.8 7.53125 38C7.53125 30.7925 10.0088 23.9867 14.5625 18.5291V23.9375H19.25V9.875H5.1875V14.5625H11.8475C6.04602 21.017 2.84375 29.2395 2.84375 38C2.84375 57.3852 18.6148 73.1562 38 73.1562C43.2711 73.1562 48.3404 72.0177 53.0684 69.7723L51.0566 65.5379Z" fill="black"/>
<path d="M49.7188 21.5938C42.312 21.5938 36.2387 27.3523 35.7083 34.6262C33.2112 32.3626 29.9101 30.9688 26.2812 30.9688H16.9062V40.3438C16.9062 48.0983 23.2149 54.4062 30.9688 54.4062H35.6562V63.7812H40.3438V45.0301L45.0312 45.0312C52.7851 45.0312 59.0938 38.7233 59.0938 30.9688V21.5938H49.7188ZM30.9688 49.7188C25.7994 49.7188 21.5938 45.5131 21.5938 40.3438V35.6562H26.2812C31.4506 35.6562 35.6562 39.8619 35.6562 45.0312V46.4045L30.282 41.0302L26.9677 44.3445L32.342 49.7188H30.9688ZM54.4062 30.9688C54.4062 36.1381 50.2006 40.3438 45.0312 40.3438H43.658L49.0323 34.9695L45.718 31.6552L40.3438 37.0295V35.6562C40.3438 30.4869 44.5494 26.2812 49.7188 26.2812H54.4062V30.9688Z" fill="black"/>
<path d="M73.1544 38C73.1544 18.6148 57.3833 2.84375 37.9981 2.84375C32.727 2.84375 27.6577 3.98234 22.9297 6.22766L24.9416 10.4619C29.0356 8.5175 33.4285 7.53102 37.9981 7.53102C54.7986 7.53102 68.4669 21.1998 68.4669 37.9998C68.4669 45.2073 65.9893 52.013 61.4356 57.4707V52.0623H56.7481V66.1248H70.8106V61.4373H64.1506C69.9521 54.9828 73.1544 46.7605 73.1544 38Z" fill="black"/>
</svg>
