<svg width="76" height="75" viewBox="0 0 76 75" fill="none" xmlns="http://www.w3.org/2000/svg">
<path d="M63.7812 58.5938H47.375V63.2812H63.7812V58.5938Z" fill="white"/>
<path d="M59.0938 67.9688H52.0625V72.6562H59.0938V67.9688Z" fill="white"/>
<path d="M63.7812 53.9062H59.0938C59.0938 51.3281 60.0313 49.2188 61.9063 47.3438L63.0781 46.1719C64.9531 44.2969 66.125 41.4844 66.125 38.6719C66.125 32.8125 61.4375 28.125 55.5781 28.125C49.7188 28.125 45.0312 32.8125 45.0312 38.6719C45.0312 41.4844 46.2031 44.0625 48.0781 46.1719L49.25 47.3438C51.125 49.2188 52.0625 51.3281 52.0625 53.9062H47.375C47.375 52.7344 46.9062 51.5625 45.9687 50.625L44.7969 49.4531C41.9844 46.6406 40.3438 42.6562 40.3438 38.6719C40.3438 30.2344 47.1406 23.4375 55.5781 23.4375C64.0156 23.4375 70.8125 30.2344 70.8125 38.6719C70.8125 42.6562 69.1719 46.6406 66.3594 49.4531L65.1875 50.625C64.25 51.5625 63.7812 52.7344 63.7812 53.9062Z" fill="white"/>
<path d="M33.3125 51.5625H14.5625V56.25H33.3125V51.5625Z" fill="white"/>
<path d="M28.625 46.875C29.9194 46.875 30.9688 45.8257 30.9688 44.5312C30.9688 43.2368 29.9194 42.1875 28.625 42.1875C27.3306 42.1875 26.2812 43.2368 26.2812 44.5312C26.2812 45.8257 27.3306 46.875 28.625 46.875Z" fill="white"/>
<path d="M21.5938 42.1875H14.5625V46.875H21.5938V42.1875Z" fill="white"/>
<path d="M30.9688 32.8125H14.5625V37.5H30.9688V32.8125Z" fill="white"/>
<path d="M40.3438 23.4375H23.9375V28.125H40.3438V23.4375Z" fill="white"/>
<path d="M16.9062 28.125C18.2007 28.125 19.25 27.0757 19.25 25.7812C19.25 24.4868 18.2007 23.4375 16.9062 23.4375C15.6118 23.4375 14.5625 24.4868 14.5625 25.7812C14.5625 27.0757 15.6118 28.125 16.9062 28.125Z" fill="white"/>
<path d="M47.375 14.0625H38V18.75H47.375V14.0625Z" fill="white"/>
<path d="M30.9688 18.75C32.2632 18.75 33.3125 17.7007 33.3125 16.4062C33.3125 15.1118 32.2632 14.0625 30.9688 14.0625C29.6743 14.0625 28.625 15.1118 28.625 16.4062C28.625 17.7007 29.6743 18.75 30.9688 18.75Z" fill="white"/>
<path d="M23.9375 14.0625H14.5625V18.75H23.9375V14.0625Z" fill="white"/>
<path d="M42.6875 65.625H9.875V9.375H52.0625V18.75H56.75V9.375C56.75 6.79688 54.6406 4.6875 52.0625 4.6875H9.875C7.29688 4.6875 5.1875 6.79688 5.1875 9.375V65.625C5.1875 68.2031 7.29688 70.3125 9.875 70.3125H42.6875V65.625Z" fill="white"/>
</svg>
