<svg width="76" height="76" viewBox="0 0 76 76" fill="none" xmlns="http://www.w3.org/2000/svg">
<path d="M61.4323 38.0024C61.4325 34.2314 60.5162 30.5168 58.7623 27.1785L55.2559 30.685C56.241 32.9986 56.7475 35.4877 56.7448 38.0024H61.4323Z" fill="#101010"/>
<path d="M55.3768 23.9376L52.0625 20.6233L41.0124 31.6734C40.074 31.2152 39.0443 30.9744 38 30.9688C36.6094 30.9688 35.2499 31.3812 34.0937 32.1538C32.9374 32.9264 32.0362 34.0246 31.504 35.3093C30.9718 36.5941 30.8326 38.0079 31.1039 39.3718C31.3752 40.7357 32.0448 41.9886 33.0282 42.9719C34.0115 43.9553 35.2643 44.6249 36.6283 44.8962C37.9922 45.1675 39.406 45.0283 40.6907 44.4961C41.9755 43.9639 43.0737 43.0627 43.8463 41.9064C44.6189 40.7502 45.0313 39.3907 45.0313 38.0001C45.0257 36.9558 44.7849 35.9261 44.3267 34.9877L55.3768 23.9376ZM38 40.3438C37.5365 40.3438 37.0833 40.2064 36.6979 39.9488C36.3125 39.6913 36.0121 39.3253 35.8347 38.897C35.6573 38.4687 35.6109 37.9975 35.7013 37.5428C35.7917 37.0882 36.0149 36.6706 36.3427 36.3428C36.6705 36.015 37.0881 35.7918 37.5428 35.7014C37.9974 35.6109 38.4687 35.6574 38.8969 35.8347C39.3252 36.0121 39.6912 36.3125 39.9488 36.698C40.2063 37.0834 40.3438 37.5365 40.3438 38.0001C40.3429 38.6214 40.0958 39.2171 39.6564 39.6565C39.217 40.0958 38.6214 40.343 38 40.3438Z" fill="#101010"/>
<path d="M38 19.25C40.5148 19.2475 43.0041 19.754 45.3179 20.739L48.8244 17.2325C45.2547 15.3636 41.263 14.4479 37.2356 14.574C33.2082 14.7001 29.2816 15.8638 25.8358 17.9524C22.39 20.041 19.5418 22.9838 17.5668 26.496C15.5918 30.0081 14.557 33.9707 14.5625 38H19.25C19.2557 33.029 21.233 28.2632 24.7481 24.7481C28.2631 21.233 33.029 19.2557 38 19.25V19.25Z" fill="#101010"/>
<path d="M38 70.8125C31.5103 70.8125 25.1664 68.8881 19.7704 65.2826C14.3744 61.6771 10.1687 56.5525 7.68522 50.5568C5.20172 44.5611 4.55192 37.9636 5.818 31.5986C7.08408 25.2336 10.2092 19.387 14.7981 14.7981C19.387 10.2092 25.2336 7.08408 31.5986 5.818C37.9636 4.55192 44.5611 5.20172 50.5568 7.68522C56.5525 10.1687 61.6771 14.3744 65.2826 19.7704C68.8881 25.1664 70.8125 31.5103 70.8125 38C70.8027 46.6994 67.3425 55.0397 61.1911 61.1911C55.0397 67.3425 46.6994 70.8027 38 70.8125V70.8125ZM38 9.87502C32.4374 9.87502 26.9997 11.5245 22.3746 14.6149C17.7495 17.7053 14.1446 22.0979 12.0159 27.237C9.88719 32.3762 9.33022 38.0312 10.4154 43.4869C11.5006 48.9426 14.1793 53.954 18.1126 57.8874C22.046 61.8207 27.0574 64.4994 32.5131 65.5846C37.9688 66.6698 43.6238 66.1128 48.763 63.9841C53.9022 61.8554 58.2947 58.2506 61.3851 53.6254C64.4755 49.0003 66.125 43.5626 66.125 38C66.1165 30.5434 63.1506 23.3946 57.878 18.122C52.6054 12.8494 45.4566 9.88351 38 9.87502V9.87502Z" fill="#101010"/>
</svg>
