<svg width="76" height="76" viewBox="0 0 76 76" fill="none" xmlns="http://www.w3.org/2000/svg">
<path d="M9.875 56.75C12.4638 56.75 14.5625 54.6513 14.5625 52.0625C14.5625 49.4737 12.4638 47.375 9.875 47.375C7.28616 47.375 5.1875 49.4737 5.1875 52.0625C5.1875 54.6513 7.28616 56.75 9.875 56.75Z" fill="black"/>
<path d="M32.1418 70.8232C24.9732 70.8232 18.2 67.3387 14.0234 61.5019L17.8355 58.7742C21.1344 63.3837 26.4821 66.1357 32.1418 66.1357C41.4441 66.1357 49.1523 58.8696 49.6902 49.5938L54.3697 49.8649C53.6881 61.6172 43.9248 70.8232 32.1418 70.8232Z" fill="black"/>
<path d="M66.125 59.0938C68.7138 59.0938 70.8125 56.9951 70.8125 54.4062C70.8125 51.8174 68.7138 49.7188 66.125 49.7188C63.5362 49.7188 61.4375 51.8174 61.4375 54.4062C61.4375 56.9951 63.5362 59.0938 66.125 59.0938Z" fill="black"/>
<path d="M72.3088 45.2534L67.7987 43.9763C68.2393 42.4205 68.4624 40.8041 68.4624 39.1719C68.4624 29.4793 60.5769 21.5938 50.8843 21.5938C48.3603 21.5938 45.9256 22.1164 43.6477 23.1472L41.7148 18.8769C44.6045 17.5691 47.6893 16.9062 50.8845 16.9062C63.1618 16.9062 73.1502 26.8946 73.1502 39.1719C73.1502 41.236 72.8668 43.2821 72.3088 45.2534Z" fill="black"/>
<path d="M48.3455 34.6857L41.3143 27.6545C40.4298 26.7688 39.252 26.2812 38 26.2812C36.748 26.2812 35.5705 26.7688 34.6852 27.6545L27.6545 34.6857C26.7406 35.5988 26.2812 36.7995 26.2812 38C26.2812 39.2005 26.7406 40.4009 27.6545 41.3143L34.6852 48.3455C35.5705 49.2313 36.748 49.7188 38 49.7188C39.252 49.7188 40.4295 49.2313 41.3143 48.3455L48.3455 41.3143C49.2594 40.4012 49.7188 39.2005 49.7188 38C49.7188 36.7995 49.2594 35.5991 48.3455 34.6857ZM38 45.0312L30.9688 38L38 30.9688L45.0308 38L38 45.0312Z" fill="black"/>
<path d="M38 12.2188C40.5888 12.2188 42.6875 10.1201 42.6875 7.53125C42.6875 4.94241 40.5888 2.84375 38 2.84375C35.4112 2.84375 33.3125 4.94241 33.3125 7.53125C33.3125 10.1201 35.4112 12.2188 38 12.2188Z" fill="black"/>
<path d="M19.3095 47.0922C12.0441 43.2067 7.53125 35.6791 7.53125 27.4466C7.53125 15.6644 16.7368 5.90055 28.4893 5.21875L28.7605 9.89828C19.4844 10.4366 12.2185 18.145 12.2185 27.4466C12.2185 33.9463 15.7829 39.8901 21.5204 42.9585L19.3095 47.0922Z" fill="black"/>
</svg>
