<svg width="76" height="76" viewBox="0 0 76 76" fill="none" xmlns="http://www.w3.org/2000/svg">
<path d="M39.1719 33.3125H47.375V28.625H42.6875V26.2812H38V28.7441C36.578 29.0352 35.3147 29.8437 34.4548 31.013C33.5949 32.1823 33.1996 33.6292 33.3455 35.0733C33.4914 36.5174 34.1681 37.856 35.2445 38.8297C36.3209 39.8034 37.7204 40.3429 39.1719 40.3438H41.5156C41.8264 40.3438 42.1245 40.4672 42.3443 40.687C42.564 40.9068 42.6875 41.2048 42.6875 41.5156C42.6875 41.8264 42.564 42.1245 42.3443 42.3443C42.1245 42.564 41.8264 42.6875 41.5156 42.6875H33.3125V47.375H38V49.7188H42.6875V47.2559C44.1095 46.9648 45.3728 46.1563 46.2327 44.987C47.0926 43.8177 47.4879 42.3708 47.342 40.9267C47.1961 39.4826 46.5194 38.144 45.443 37.1703C44.3666 36.1966 42.9671 35.6571 41.5156 35.6562H39.1719C38.8611 35.6562 38.563 35.5328 38.3432 35.313C38.1235 35.0932 38 34.7952 38 34.4844C38 34.1736 38.1235 33.8755 38.3432 33.6557C38.563 33.436 38.8611 33.3125 39.1719 33.3125Z" fill="black"/>
<path d="M68.4688 30.9688H63.7344C63.6668 29.1172 63.2202 27.2992 62.422 25.6272C61.6238 23.9552 60.491 22.4648 59.0938 21.248V12.2188C59.0938 11.7835 58.9725 11.3568 58.7437 10.9866C58.5149 10.6163 58.1875 10.3171 57.7982 10.1224C57.4088 9.92778 56.973 9.84538 56.5395 9.88447C56.106 9.92356 55.692 10.0826 55.3438 10.3438L46.5934 16.9063H35.6562C22.7434 16.9063 13.4764 24.5028 12.3395 35.6562H12.2188C11.5973 35.6557 11.0015 35.4086 10.5621 34.9692C10.1227 34.5297 9.87556 33.9339 9.875 33.3125V28.625H5.1875V33.3125C5.18955 35.1767 5.93099 36.9639 7.24917 38.2821C8.56734 39.6003 10.3546 40.3417 12.2188 40.3438H12.3828C12.7229 43.4169 13.7218 46.3805 15.3113 49.0324C16.9009 51.6844 19.0438 53.9623 21.5938 55.7108V63.7812C21.5938 64.4029 21.8407 64.999 22.2802 65.4385C22.7198 65.8781 23.3159 66.125 23.9375 66.125H33.3125C33.9341 66.125 34.5302 65.8781 34.9698 65.4385C35.4093 64.999 35.6562 64.4029 35.6562 63.7812V59.0938H42.6875V63.7812C42.6875 64.4029 42.9344 64.999 43.374 65.4385C43.8135 65.8781 44.4096 66.125 45.0312 66.125H54.4062C55.0279 66.125 55.624 65.8781 56.0635 65.4385C56.5031 64.999 56.75 64.4029 56.75 63.7812V55.8997C58.443 55.097 59.9233 53.9071 61.071 52.4261C62.2188 50.9451 63.0017 49.2147 63.3566 47.375H68.4688C69.0904 47.375 69.6865 47.1281 70.126 46.6885C70.5656 46.249 70.8125 45.6529 70.8125 45.0312V33.3125C70.8125 32.6909 70.5656 32.0948 70.126 31.6552C69.6865 31.2157 69.0904 30.9688 68.4688 30.9688ZM66.125 42.6875H59.3844C58.6691 49.1396 57.4543 50.8564 52.0625 52.8017V61.4375H47.375V54.4062H30.9688V61.4375H26.2812V52.9482C23.4592 51.6056 21.0783 49.4863 19.4179 46.8387C17.7574 44.1912 16.8862 41.1251 16.9062 38C16.9062 26.667 26.3237 21.5938 35.6562 21.5938H48.1566L54.4062 16.9063V23.4134C60.0739 27.7712 58.8889 30.8806 59.1366 35.6562H66.125V42.6875Z" fill="black"/>
</svg>
