<svg width="300" height="300" viewBox="0 0 300 300" fill="none" xmlns="http://www.w3.org/2000/svg">
<g style="mix-blend-mode:multiply">
<path d="M189.047 178.125L164.766 202.406L178.078 215.625L215.578 178.125L178.078 140.625L164.766 153.844L189.047 178.125Z" fill="#35d0b2"/>
<path d="M110.906 178.125L135.188 153.844L121.875 140.625L84.375 178.125L121.875 215.625L135.188 202.406L110.906 178.125Z" fill="#35d0b2"/>
<path d="M84.375 84.375C89.5527 84.375 93.75 80.1777 93.75 75C93.75 69.8223 89.5527 65.625 84.375 65.625C79.1973 65.625 75 69.8223 75 75C75 80.1777 79.1973 84.375 84.375 84.375Z" fill="#35d0b2"/>
<path d="M56.25 84.375C61.4277 84.375 65.625 80.1777 65.625 75C65.625 69.8223 61.4277 65.625 56.25 65.625C51.0723 65.625 46.875 69.8223 46.875 75C46.875 80.1777 51.0723 84.375 56.25 84.375Z" fill="#35d0b2"/>
<path d="M262.5 37.5H37.5C27.1613 37.5 18.75 45.9141 18.75 56.25V243.75C18.75 254.086 27.1613 262.5 37.5 262.5H262.5C272.839 262.5 281.25 254.086 281.25 243.75V56.25C281.25 45.9141 272.839 37.5 262.5 37.5ZM262.5 56.25V93.75H37.5V56.25H262.5ZM37.5 243.75V112.5H262.5V243.75H37.5Z" fill="#35d0b2"/>
</g>
</svg>
