<svg width="60" height="60" viewBox="0 0 60 60" fill="none" xmlns="http://www.w3.org/2000/svg">
<path d="M51.4749 28.3318L10.2249 7.70681C9.90164 7.54512 9.53848 7.48034 9.17921 7.52026C8.81994 7.56018 8.47987 7.7031 8.19994 7.93181C7.93261 8.15586 7.73308 8.45004 7.62377 8.78127C7.51447 9.1125 7.49972 9.46766 7.58119 9.80681L13.1312 30.0006L7.50619 50.1381C7.42974 50.4213 7.42082 50.7185 7.48014 51.0058C7.53946 51.2931 7.66537 51.5625 7.84774 51.7923C8.03011 52.0221 8.26386 52.2059 8.53019 52.3289C8.79652 52.4519 9.088 52.5107 9.38119 52.5006C9.67471 52.4988 9.96371 52.4282 10.2249 52.2943L51.4749 31.6693C51.7821 31.512 52.0398 31.2729 52.2198 30.9785C52.3998 30.684 52.495 30.3457 52.495 30.0006C52.495 29.6555 52.3998 29.3171 52.2198 29.0226C52.0398 28.7282 51.7821 28.4892 51.4749 28.3318ZM12.2874 47.0818L16.4312 31.8756H33.7562V28.1256H16.4312L12.2874 12.9193L46.4312 30.0006L12.2874 47.0818Z" fill="black"/>
</svg>
