<svg width="60" height="60" viewBox="0 0 60 60" fill="none" xmlns="http://www.w3.org/2000/svg">
<path d="M52.5 18.75H41.25V11.25C41.25 10.2554 40.8549 9.30161 40.1516 8.59835C39.4484 7.89509 38.4946 7.5 37.5 7.5H22.5C21.5054 7.5 20.5516 7.89509 19.8484 8.59835C19.1451 9.30161 18.75 10.2554 18.75 11.25V18.75H7.5C6.50544 18.75 5.55161 19.1451 4.84835 19.8484C4.14509 20.5516 3.75 21.5054 3.75 22.5V48.75C3.75 49.7446 4.14509 50.6984 4.84835 51.4016C5.55161 52.1049 6.50544 52.5 7.5 52.5H52.5C53.4946 52.5 54.4484 52.1049 55.1516 51.4016C55.8549 50.6984 56.25 49.7446 56.25 48.75V22.5C56.25 21.5054 55.8549 20.5516 55.1516 19.8484C54.4484 19.1451 53.4946 18.75 52.5 18.75ZM22.5 11.25H37.5V18.75H22.5V11.25ZM7.5 48.75V22.5H52.5V48.75H7.5Z" fill="black"/>
</svg>
