<svg width="297" height="466" viewBox="0 0 297 466" fill="none" xmlns="http://www.w3.org/2000/svg">
<mask id="mask0_27_531" style="mask-type:alpha" maskUnits="userSpaceOnUse" x="0" y="0" width="297" height="466">
<rect width="296.032" height="466" fill="#D9D9D9"/>
</mask>
<g mask="url(#mask0_27_531)">
<path d="M169.958 197.56C158.172 197.56 148.626 188.013 148.626 176.227C148.626 111.911 96.3087 59.594 31.9923 59.594C20.2063 59.594 10.6602 50.0478 10.6602 38.2618C10.6602 26.4758 20.2063 16.9297 31.9923 16.9297C119.827 16.9297 191.29 88.3924 191.29 176.227C191.29 188.013 181.744 197.56 169.958 197.56Z" fill="#41E5C6"/>
<path d="M167.496 309.775C160.134 309.775 152.933 305.942 148.986 299.126C143.118 288.957 146.586 275.912 156.774 270.056C183.765 254.509 203.075 229.378 211.129 199.349C219.184 169.32 215.077 137.907 199.448 110.966C193.58 100.796 197.047 87.7517 207.235 81.895C217.424 75.985 230.493 79.4991 236.36 89.6685C257.644 126.459 263.298 169.32 252.256 210.37C241.268 251.421 214.863 285.709 178.004 306.953C174.643 308.87 170.963 309.828 167.336 309.828L167.496 309.775Z" fill="#8CFC6D"/>
<path d="M137.229 381.899C109.568 381.899 82.28 374.651 57.7156 360.476C47.5161 354.614 43.9916 341.558 49.9191 331.379C55.8466 321.201 68.8764 317.684 79.076 323.599C106.097 339.16 137.55 343.316 167.721 335.27C197.839 327.223 223.045 307.932 238.638 280.967C244.512 270.789 257.595 267.271 267.795 273.187C277.994 279.049 281.519 292.105 275.591 302.283C254.284 339.107 219.894 365.432 178.722 376.463C164.998 380.14 151.06 381.952 137.176 381.952L137.229 381.899Z" fill="#6676D1"/>
<path d="M111.005 442.786C23.1697 442.786 -48.293 371.323 -48.293 283.488C-48.293 271.702 -38.7468 262.156 -26.9608 262.156C-15.1748 262.156 -5.62869 271.702 -5.62869 283.488C-5.62869 347.805 46.6884 400.122 111.005 400.122C122.791 400.122 132.337 409.668 132.337 421.454C132.337 433.24 122.791 442.786 111.005 442.786Z" fill="#41E5C6"/>
<path d="M-114.174 189.405C-117.795 189.405 -121.47 188.498 -124.825 186.525C-134.997 180.659 -138.512 167.593 -132.6 157.406C-88.7706 81.303 8.74132 55.1709 84.6845 99.0623C94.8564 104.929 98.3714 117.995 92.4599 128.181C86.6017 138.367 73.554 141.887 63.3821 135.967C7.78271 103.809 -63.6337 122.955 -95.7472 178.685C-99.6881 185.512 -106.824 189.352 -114.227 189.352L-114.174 189.405Z" fill="#6676D1"/>
</g>
</svg>
