<svg width="120" height="40" viewBox="0 0 120 40" fill="none" xmlns="http://www.w3.org/2000/svg">
<path d="M49.229 25.8627L45.5786 17.5103C45.0979 16.4087 45.9041 15.1719 47.1109 15.1719H47.3612C48.0472 15.1719 48.6632 15.5925 48.9135 16.2284L51.938 23.8697H51.1468L54.2664 16.2134C54.5218 15.5825 55.1327 15.1719 55.8137 15.1719C57.0205 15.1719 57.8317 16.4137 57.341 17.5203L53.6405 25.8777C53.2549 26.749 52.3887 27.3098 51.4373 27.3098C50.4808 27.3098 49.6095 26.744 49.229 25.8627Z" fill="black"/>
<path d="M63.6385 27.565C62.7121 27.565 61.9059 27.3947 61.2099 27.0592C60.5138 26.7187 59.973 26.258 59.5724 25.6722C59.1769 25.0863 58.9766 24.4103 58.9766 23.6542C58.9766 22.7629 59.2069 22.0618 59.6676 21.5461C60.1283 21.0303 60.8794 20.6648 61.9109 20.4294C62.9424 20.1991 64.3195 20.0839 66.037 20.0839H67.3489V22.0168H66.062C65.4361 22.0168 64.8953 22.0418 64.4497 22.0919C64.004 22.1419 63.6385 22.2271 63.358 22.3523C63.0776 22.4774 62.8723 22.6327 62.7521 22.823C62.627 23.0132 62.5669 23.2386 62.5669 23.504C62.5669 23.9496 62.7271 24.3202 63.0476 24.6206C63.3681 24.9161 63.8287 25.0663 64.4246 25.0663C64.9053 25.0663 65.331 24.9611 65.7115 24.7458C66.0921 24.5305 66.3875 24.235 66.6028 23.8545C66.8182 23.4739 66.9233 23.0182 66.9233 22.4925V19.6683C66.9233 18.9422 66.7581 18.4265 66.4276 18.121C66.0971 17.8156 65.5263 17.6603 64.7201 17.6603C64.0741 17.6603 63.3881 17.7605 62.652 17.9558C62.3415 18.0409 62.0311 18.146 61.7256 18.2712C61.0196 18.5566 60.2184 18.2462 59.928 17.5401C59.6425 16.8491 59.978 16.063 60.6641 15.7675C60.7792 15.7174 60.8944 15.6724 61.0146 15.6223C61.6155 15.392 62.2614 15.2117 62.9474 15.0915C63.6334 14.9663 64.2744 14.9062 64.8703 14.9062C66.1422 14.9062 67.1937 15.0915 68.03 15.4621C68.8662 15.8326 69.4821 16.4085 69.8877 17.1846C70.2933 17.9608 70.4936 18.9422 70.4936 20.134V25.572C70.4936 26.5385 69.7124 27.3196 68.746 27.3196C67.7796 27.3196 66.9984 26.5385 66.9984 25.572V24.891H67.1737C67.0735 25.4368 66.8632 25.9075 66.5428 26.3031C66.2223 26.6987 65.8167 27.0091 65.331 27.2345C64.8452 27.4598 64.2794 27.57 63.6335 27.57L63.6385 27.565Z" fill="black"/>
<path d="M73.3644 25.444V17.0066C73.3644 15.9951 74.1856 15.1738 75.1971 15.1738C76.2086 15.1738 77.0298 15.9951 77.0298 17.0066V17.4522H76.7594C76.9897 16.9214 77.2902 16.4708 77.6657 16.0902C78.0363 15.7096 78.487 15.4192 79.0177 15.2089C79.5485 15.0036 80.1244 14.8984 80.7503 14.8984C81.6917 14.8984 82.4779 15.1238 83.1038 15.5694C83.7297 16.0151 84.1754 16.6911 84.4408 17.6024H84.0952C84.4558 16.7762 85.0216 16.1202 85.7777 15.6345C86.5389 15.1488 87.3951 14.9034 88.3566 14.9034C89.318 14.9034 90.0491 15.0837 90.66 15.4493C91.2709 15.8148 91.7265 16.3806 92.022 17.1468C92.3174 17.9129 92.4676 18.8793 92.4676 20.031V25.444C92.4676 26.4756 91.6314 27.3168 90.5949 27.3168C89.5633 27.3168 88.7221 26.4806 88.7221 25.444V20.1562C88.7221 19.33 88.5969 18.7291 88.3515 18.3586C88.1012 17.988 87.6555 17.8027 87.0146 17.8027C86.5689 17.8027 86.1783 17.9079 85.8378 18.1232C85.4973 18.3385 85.2369 18.659 85.0567 19.0896C84.8764 19.5203 84.7863 20.041 84.7863 20.6519V25.444C84.7863 26.4756 83.95 27.3168 82.9135 27.3168C81.882 27.3168 81.0407 26.4806 81.0407 25.444V20.1562C81.0407 19.33 80.9105 18.7291 80.6451 18.3586C80.3798 17.988 79.9491 17.8027 79.3582 17.8027C78.8976 17.8027 78.497 17.9079 78.1565 18.1232C77.816 18.3385 77.5556 18.659 77.3753 19.0896C77.195 19.5203 77.1049 20.041 77.1049 20.6519V25.444C77.1049 26.4756 76.2687 27.3168 75.2321 27.3168C74.2006 27.3168 73.3594 26.4806 73.3594 25.444H73.3644Z" fill="black"/>
<path d="M101.195 27.56C99.8876 27.56 98.7559 27.3046 97.7995 26.7938C96.8431 26.2831 96.092 25.552 95.5562 24.6006C95.0204 23.6492 94.75 22.5225 94.75 21.2206C94.75 19.9187 95.0204 18.812 95.5562 17.8656C96.092 16.9142 96.8381 16.1831 97.7995 15.6724C98.7559 15.1616 99.8876 14.9062 101.195 14.9062C102.501 14.9062 103.633 15.1616 104.6 15.6724C105.566 16.1831 106.317 16.9142 106.853 17.8656C107.389 18.817 107.659 19.9337 107.659 21.2206C107.659 22.5075 107.389 23.6542 106.853 24.6006C106.317 25.552 105.566 26.2831 104.6 26.7938C103.633 27.3046 102.496 27.56 101.195 27.56ZM101.195 24.7859C102.006 24.7859 102.657 24.4954 103.152 23.9196C103.648 23.3437 103.894 22.4424 103.894 21.2206C103.894 19.9988 103.643 19.1275 103.152 18.5566C102.662 17.9858 102.006 17.7004 101.195 17.7004C100.383 17.7004 99.7574 17.9858 99.2617 18.5566C98.7659 19.1275 98.5206 20.0138 98.5206 21.2206C98.5206 22.4274 98.7659 23.3437 99.2617 23.9196C99.7574 24.4954 100.403 24.7859 101.195 24.7859Z" fill="black"/>
<path d="M114.57 27.565C113.859 27.565 113.173 27.5099 112.512 27.4047C111.851 27.2996 111.25 27.1443 110.704 26.944C110.599 26.904 110.499 26.8639 110.399 26.8239C109.738 26.5435 109.402 25.8074 109.653 25.1314C109.918 24.4203 110.714 24.0848 111.415 24.3752C111.445 24.3903 111.48 24.4003 111.51 24.4153C111.996 24.6156 112.507 24.7608 113.033 24.861C113.563 24.9611 114.079 25.0112 114.595 25.0112C115.291 25.0112 115.802 24.896 116.132 24.6657C116.463 24.4353 116.628 24.1349 116.628 23.7744C116.628 23.4589 116.523 23.2235 116.307 23.0683C116.092 22.9131 115.777 22.7929 115.366 22.7078L112.737 22.2371C111.731 22.0368 110.95 21.6612 110.394 21.0954C109.838 20.5296 109.562 19.8085 109.562 18.9172C109.562 18.0759 109.793 17.3549 110.259 16.764C110.719 16.1681 111.36 15.7124 112.176 15.387C112.993 15.0665 113.924 14.9062 114.965 14.9062C115.561 14.9062 116.137 14.9563 116.698 15.0565C117.259 15.1566 117.79 15.3018 118.295 15.5021C118.436 15.5572 118.576 15.6173 118.706 15.6824C119.277 15.9578 119.517 16.6438 119.282 17.2297L119.222 17.3749C118.961 18.0209 118.225 18.3263 117.584 18.0559C117.154 17.8756 116.718 17.7354 116.272 17.6353C115.827 17.5351 115.411 17.4851 115.036 17.4851C114.274 17.4851 113.729 17.6002 113.388 17.8306C113.048 18.0609 112.882 18.3614 112.882 18.7219C112.882 19.0023 112.983 19.2377 113.178 19.4279C113.378 19.6182 113.674 19.7484 114.069 19.8135L116.693 20.2592C117.75 20.4595 118.561 20.825 119.122 21.3608C119.682 21.8966 119.963 22.6227 119.963 23.529C119.963 24.3903 119.738 25.1214 119.292 25.7222C118.846 26.3231 118.22 26.7838 117.409 27.0993C116.598 27.4147 115.652 27.57 114.56 27.57L114.57 27.565Z" fill="black"/>
<path d="M54.892 21.7544C55.0524 21.7544 55.1824 21.7499 55.1824 21.7444C55.1824 21.7389 55.0524 21.7344 54.892 21.7344C54.7316 21.7344 54.6016 21.7389 54.6016 21.7444C54.6016 21.7499 54.7316 21.7544 54.892 21.7544Z" fill="#54595B"/>
<path d="M28.6993 16.9601C27.5927 16.9601 26.6963 16.0638 26.6963 14.9571C26.6963 8.91819 21.7841 4.00592 15.7451 4.00592C14.6385 4.00592 13.7422 3.1096 13.7422 2.00296C13.7422 0.896325 14.6385 0 15.7451 0C23.9923 0 30.7023 6.70992 30.7023 14.9571C30.7023 16.0638 29.8059 16.9601 28.6993 16.9601Z" fill="#41E5C6"/>
<path d="M28.4351 27.5064C27.7441 27.5064 27.0681 27.1459 26.6975 26.505C26.1467 25.5485 26.4722 24.3217 27.4286 23.7709C29.9624 22.3088 31.775 19.9453 32.5312 17.1211C33.2873 14.2969 32.9017 11.3425 31.4345 8.80879C30.8837 7.85238 31.2092 6.62557 32.1656 6.07475C33.122 5.51893 34.3488 5.84942 34.8997 6.80583C36.8976 10.2659 37.4284 14.2969 36.3919 18.1576C35.3603 22.0183 32.8817 25.2431 29.4216 27.241C29.1061 27.4213 28.7606 27.5114 28.4201 27.5114L28.4351 27.5064Z" fill="#8CFC6D"/>
<path d="M25.6212 34.2899C23.0274 34.2899 20.4686 33.6088 18.1652 32.2769C17.2088 31.7261 16.8783 30.4992 17.4341 29.5428C17.9899 28.5864 19.2118 28.2559 20.1682 28.8118C22.7019 30.2739 25.6513 30.6645 28.4805 29.9084C31.3046 29.1523 33.6681 27.3396 35.1303 24.8058C35.6811 23.8494 36.9079 23.5189 37.8643 24.0748C38.8207 24.6256 39.1512 25.8524 38.5954 26.8088C36.5975 30.2689 33.3727 32.7426 29.512 33.7791C28.2251 34.1246 26.9181 34.2949 25.6162 34.2949L25.6212 34.2899Z" fill="#6676D1"/>
<path d="M23.1212 39.9991C14.874 39.9991 8.16406 33.2892 8.16406 25.042C8.16406 23.9354 9.06039 23.0391 10.167 23.0391C11.2737 23.0391 12.17 23.9354 12.17 25.042C12.17 31.081 17.0822 35.9932 23.1212 35.9932C24.2278 35.9932 25.1241 36.8895 25.1241 37.9962C25.1241 39.1028 24.2278 39.9991 23.1212 39.9991Z" fill="#41E5C6"/>
<path d="M5.69289 34.1911C5.00187 34.1911 4.32587 33.8306 3.95533 33.1897C1.95737 29.7295 1.42659 25.6986 2.46312 21.8379C3.49965 17.9772 5.97331 14.7524 9.43342 12.7544C10.3898 12.1986 11.6167 12.5291 12.1675 13.4855C12.7183 14.4419 12.3928 15.6687 11.4364 16.2196C8.90264 17.6817 7.08996 20.0452 6.33384 22.8694C5.57772 25.6936 5.96329 28.6479 7.42546 31.1817C7.97627 32.1381 7.65079 33.3649 6.69437 33.9157C6.37891 34.096 6.0334 34.1861 5.69289 34.1861V34.1911Z" fill="#8CFC6D"/>
<path d="M2.00263 16.2009C1.66212 16.2009 1.31661 16.1158 1.00115 15.9305C0.0447308 15.3797 -0.285758 14.1529 0.270064 13.1965C4.39116 6.05089 13.5597 3.59726 20.7003 7.71835C21.6567 8.26917 21.9872 9.49598 21.4314 10.4524C20.8805 11.4088 19.6537 11.7393 18.6973 11.1835C13.4696 8.16401 6.75465 9.96167 3.73519 15.1944C3.36464 15.8354 2.69365 16.1959 1.99762 16.1959L2.00263 16.2009Z" fill="#6676D1"/>
</svg>
