<svg width="300" height="300" viewBox="0 0 300 300" fill="none" xmlns="http://www.w3.org/2000/svg">
<g style="mix-blend-mode:multiply">
<path d="M243.729 150.009C243.73 134.925 240.065 120.067 233.049 106.714L219.023 120.74C222.964 129.994 224.99 139.951 224.979 150.009H243.729Z" fill="#73e562"/>
<path d="M219.507 93.7503L206.25 80.4932L162.05 124.693C158.296 122.861 154.177 121.898 150 121.875C144.437 121.875 139 123.525 134.375 126.615C129.749 129.706 126.145 134.098 124.016 139.237C121.887 144.377 121.33 150.032 122.415 155.487C123.501 160.943 126.179 165.954 130.113 169.888C134.046 173.821 139.057 176.5 144.513 177.585C149.969 178.67 155.624 178.113 160.763 175.984C165.902 173.856 170.295 170.251 173.385 165.626C176.476 161.001 178.125 155.563 178.125 150C178.103 145.823 177.139 141.705 175.307 137.951L219.507 93.7503ZM150 159.375C148.146 159.375 146.333 158.826 144.792 157.795C143.25 156.765 142.048 155.301 141.339 153.588C140.629 151.875 140.443 149.99 140.805 148.171C141.167 146.353 142.06 144.682 143.371 143.371C144.682 142.06 146.352 141.167 148.171 140.805C149.99 140.444 151.875 140.629 153.588 141.339C155.301 142.049 156.765 143.25 157.795 144.792C158.825 146.334 159.375 148.146 159.375 150C159.372 152.486 158.383 154.868 156.626 156.626C154.868 158.383 152.485 159.372 150 159.375Z" fill="#73e562"/>
<path d="M150 75.0001C160.059 74.9902 170.016 77.0162 179.272 80.9561L193.298 66.9302C179.019 59.4544 163.052 55.7914 146.942 56.2959C130.833 56.8003 115.126 61.4551 101.343 69.8096C87.56 78.1641 76.1671 89.9353 68.2673 103.984C60.3674 118.033 56.2281 133.883 56.2501 150H75.0001C75.0229 130.116 82.932 111.053 96.9923 96.9923C111.053 82.9321 130.116 75.023 150 75.0001Z" fill="#73e562"/>
<path d="M150 281.25C124.041 281.25 98.6654 273.552 77.0815 259.13C55.4975 244.709 38.6749 224.21 28.7409 200.227C18.8069 176.244 16.2077 149.854 21.272 124.394C26.3363 98.9345 38.8366 75.5479 57.1923 57.1923C75.5479 38.8366 98.9345 26.3363 124.394 21.272C149.854 16.2077 176.244 18.8069 200.227 28.7409C224.21 38.6749 244.709 55.4975 259.13 77.0815C273.552 98.6654 281.25 124.041 281.25 150C281.211 184.798 267.37 218.159 242.765 242.765C218.159 267.37 184.798 281.211 150 281.25ZM150 37.5001C127.75 37.5001 105.999 44.0981 87.4984 56.4597C68.9979 68.8214 54.5785 86.3915 46.0636 106.948C37.5488 127.505 35.3209 150.125 39.6617 171.948C44.0026 193.771 54.7171 213.816 70.4505 229.55C86.184 245.283 106.23 255.998 128.052 260.338C149.875 264.679 172.495 262.451 193.052 253.936C213.609 245.422 231.179 231.002 243.54 212.502C255.902 194.001 262.5 172.25 262.5 150C262.466 120.174 250.603 91.5786 229.512 70.4881C208.422 49.3976 179.826 37.5341 150 37.5001Z" fill="#73e562"/>
</g>
</svg>
